#tb 0: 1/25
0,          0,          0,        1,  1382400, 0x6ef5c76e
0,          3,          3,        1,  1382400, 0x975238be
0,          6,          6,        1,  1382400, 0xe5529a79
0,          7,          7,        1,  1382400, 0x639641d4
0,          8,          8,        1,  1382400, 0x566eb1df
0,          9,          9,        1,  1382400, 0x4fd4b46a
0,         10,         10,        1,  1382400, 0xfb4a6a0e
0,         11,         11,        1,  1382400, 0x4485af32
